<svg width="19" height="18" viewBox="0 0 19 18" fill="none" xmlns="http://www.w3.org/2000/svg">
<path d="M1.71283 6.75785C1.21057 7.26017 0.928406 7.94143 0.928406 8.65178C0.928406 9.36213 1.21057 10.0434 1.71283 10.5457L7.60569 16.4386C8.10801 16.9408 8.78927 17.223 9.49962 17.223C10.21 17.223 10.8912 16.9408 11.3935 16.4386L17.2864 10.5457C17.7887 10.0434 18.0708 9.36213 18.0708 8.65178C18.0708 7.94143 17.7887 7.26017 17.2864 6.75785L11.3935 0.864994C10.8912 0.362731 10.21 0.0805664 9.49962 0.0805664C8.78927 0.0805664 8.10801 0.362731 7.60569 0.864994L1.71283 6.75785ZM2.47069 9.78857C2.32145 9.63933 2.20307 9.46216 2.1223 9.26717C2.04153 9.07218 1.99996 8.86319 1.99996 8.65214C1.99996 8.44108 2.04153 8.23209 2.1223 8.03711C2.20307 7.84212 2.32145 7.66495 2.47069 7.51571L8.36355 1.62285C8.51279 1.47361 8.68996 1.35523 8.88495 1.27446C9.07993 1.19369 9.28892 1.15212 9.49998 1.15212C9.71103 1.15212 9.92002 1.19369 10.115 1.27446C10.31 1.35523 10.4872 1.47361 10.6364 1.62285L16.5293 7.51571C16.6785 7.66495 16.7969 7.84212 16.8777 8.03711C16.9584 8.23209 17 8.44108 17 8.65214C17 8.86319 16.9584 9.07218 16.8777 9.26717C16.7969 9.46216 16.6785 9.63933 16.5293 9.78857L10.6364 15.6814C10.4872 15.8307 10.31 15.949 10.115 16.0298C9.92002 16.1106 9.71103 16.1522 9.49998 16.1522C9.28892 16.1522 9.07993 16.1106 8.88495 16.0298C8.68996 15.949 8.51279 15.8307 8.36355 15.6814L2.47069 9.78857ZM10.7707 4.52357C10.7216 4.47093 10.6625 4.42872 10.5968 4.39944C10.5311 4.37016 10.4601 4.35441 10.3882 4.35314C10.3163 4.35187 10.2448 4.36511 10.1781 4.39205C10.1114 4.41899 10.0508 4.4591 9.99995 4.50997C9.94908 4.56084 9.90898 4.62143 9.88203 4.68814C9.85509 4.75484 9.84186 4.82629 9.84313 4.89822C9.84439 4.97016 9.86014 5.04109 9.88942 5.10681C9.9187 5.17252 9.96091 5.23166 10.0135 5.28071L10.885 6.15214H9.67783C8.96743 6.15214 8.28613 6.43434 7.7838 6.93667C7.28147 7.439 6.99926 8.12031 6.99926 8.83071V11.6879C6.99926 11.8299 7.0557 11.9662 7.15617 12.0667C7.25664 12.1671 7.3929 12.2236 7.53498 12.2236C7.67706 12.2236 7.81332 12.1671 7.91378 12.0667C8.01425 11.9662 8.07069 11.8299 8.07069 11.6879V8.83071C8.07069 8.6196 8.11228 8.41055 8.1931 8.21552C8.27391 8.02048 8.39235 7.84328 8.54167 7.69403C8.69098 7.54479 8.86823 7.42642 9.0633 7.3457C9.25837 7.26497 9.46743 7.22347 9.67855 7.22357H10.8857L10.0143 8.09499C9.96163 8.14404 9.91941 8.20318 9.89013 8.2689C9.86085 8.33461 9.84511 8.40555 9.84384 8.47748C9.84257 8.54941 9.8558 8.62086 9.88275 8.68756C9.90969 8.75427 9.94979 8.81487 10.0007 8.86574C10.0515 8.91661 10.1121 8.95671 10.1788 8.98365C10.2455 9.0106 10.317 9.02383 10.3889 9.02256C10.4609 9.02129 10.5318 9.00555 10.5975 8.97627C10.6632 8.94699 10.7224 8.90477 10.7714 8.85214L12.5571 7.06642C12.6574 6.96598 12.7138 6.82982 12.7138 6.68785C12.7138 6.54589 12.6574 6.40973 12.5571 6.30928L10.7707 4.52357Z" fill="#131313"/>
</svg>
