<svg width="309" height="198" viewBox="0 0 309 198" fill="none" xmlns="http://www.w3.org/2000/svg">
<path d="M269.754 169.213C267.244 169.428 264.718 169.395 262.214 169.112C234.689 166.072 197.208 166.936 166.653 185.85C124.397 212.002 58.1739 189.613 28.9615 177.433C6.6412 168.13 -4.9463 145.345 2.01382 123.957C2.11181 123.655 2.21253 123.353 2.31869 123.052C6.69837 110.341 15.3434 100.394 26.049 95.121C35.38 90.5253 49.0035 80.9287 55.0654 62.4888C57.5696 54.8746 61.0048 47.7118 65.4661 41.4682C77.4129 24.7468 102.423 -0.154283 145.435 0.000720152C152.977 0.0372196 160.462 1.30294 167.595 3.74799C183.309 9.09696 197.502 19.9717 208.324 35.0478C215.23 44.6634 225.579 53.6019 240.395 54.3307C260.957 55.3478 280.579 64.9117 295.3 81.9322C295.725 82.4217 296.144 82.9139 296.563 83.4115C322.773 114.605 304.568 166.172 269.754 169.213Z" fill="white" fill-opacity="0.1"/>
<g opacity="0.7">
<path opacity="0.7" d="M75.5561 166.429C77.6321 166.429 79.315 164.746 79.315 162.67C79.315 160.594 77.6321 158.911 75.5561 158.911C73.48 158.911 71.7971 160.594 71.7971 162.67C71.7971 164.746 73.48 166.429 75.5561 166.429Z" fill="url(#paint0_linear_2751_18104)"/>
</g>
<path opacity="0.2" d="M75.5 166C77.433 166 79 164.433 79 162.5C79 160.567 77.433 159 75.5 159C73.567 159 72 160.567 72 162.5C72 164.433 73.567 166 75.5 166Z" fill="black"/>
<path d="M55.5 91C56.3284 91 57 90.3284 57 89.5C57 88.6716 56.3284 88 55.5 88C54.6716 88 54 88.6716 54 89.5C54 90.3284 54.6716 91 55.5 91Z" fill="white"/>
<path d="M154.5 171C155.328 171 156 170.552 156 170C156 169.448 155.328 169 154.5 169C153.672 169 153 169.448 153 170C153 170.552 153.672 171 154.5 171Z" fill="white"/>
<path d="M96 178C96.5523 178 97 177.552 97 177C97 176.448 96.5523 176 96 176C95.4477 176 95 176.448 95 177C95 177.552 95.4477 178 96 178Z" fill="white"/>
<path d="M268 140C268.552 140 269 139.776 269 139.5C269 139.224 268.552 139 268 139C267.448 139 267 139.224 267 139.5C267 139.776 267.448 140 268 140Z" fill="white"/>
<path d="M223.5 71C223.776 71 224 70.5523 224 70C224 69.4477 223.776 69 223.5 69C223.224 69 223 69.4477 223 70C223 70.5523 223.224 71 223.5 71Z" fill="white"/>
<path d="M286.5 105C286.776 105 287 104.552 287 104C287 103.448 286.776 103 286.5 103C286.224 103 286 103.448 286 104C286 104.552 286.224 105 286.5 105Z" fill="white"/>
<path d="M79.5 45C80.3284 45 81 44.3284 81 43.5C81 42.6716 80.3284 42 79.5 42C78.6716 42 78 42.6716 78 43.5C78 44.3284 78.6716 45 79.5 45Z" fill="white"/>
<path d="M42 138.247H40.7539V137H40.2461V138.247H39V138.755H40.2461V140H40.7539V138.755H42V138.247Z" fill="white"/>
<path d="M73 137.247H71.7539V136H71.2461V137.247H70V137.755H71.2461V139H71.7539V137.755H73V137.247Z" fill="white"/>
<path d="M117 162.247H115.754V161H115.246V162.247H114V162.755H115.246V164H115.754V162.755H117V162.247Z" fill="white"/>
<path d="M259 63.8313H258.584V63H258.416V63.8313H258V64.1687H258.416V65H258.584V64.1687H259V63.8313Z" fill="white"/>
<path d="M212 97.4157H211.584V97H211.416V97.4157H211V97.5843H211.416V98H211.584V97.5843H212V97.4157Z" fill="white"/>
<path d="M19 118.831H18.5843V118H18.4157V118.831H18V119.169H18.4157V120H18.5843V119.169H19V118.831Z" fill="white"/>
<path d="M42 165.416H41.5843V165H41.4157V165.416H41V165.584H41.4157V166H41.5843V165.584H42V165.416Z" fill="white"/>
<path d="M115 18.8313H114.584V18H114.416V18.8313H114V19.1687H114.416V20H114.584V19.1687H115V18.8313Z" fill="white"/>
<path d="M81 100.416H80.1687V100H79.8313V100.416H79V100.584H79.8313V101H80.1687V100.584H81V100.416Z" fill="white"/>
<path d="M88 76.8313H87.5843V76H87.4157V76.8313H87V77.1687H87.4157V78H87.5843V77.1687H88V76.8313Z" fill="white"/>
<g opacity="0.7">
<path opacity="0.7" d="M203.766 131.035C205.499 131.035 206.904 129.63 206.904 127.897C206.904 126.164 205.499 124.759 203.766 124.759C202.033 124.759 200.628 126.164 200.628 127.897C200.628 129.63 202.033 131.035 203.766 131.035Z" fill="url(#paint1_linear_2751_18104)"/>
</g>
<path opacity="0.2" d="M204 131C205.657 131 207 129.657 207 128C207 126.343 205.657 125 204 125C202.343 125 201 126.343 201 128C201 129.657 202.343 131 204 131Z" fill="black"/>
<path opacity="0.2" d="M211.5 152C213.433 152 215 150.433 215 148.5C215 146.567 213.433 145 211.5 145C209.567 145 208 146.567 208 148.5C208 150.433 209.567 152 211.5 152Z" fill="black"/>
<path d="M207.079 61.5628C206.31 60.6067 205.349 59.8047 204.25 59.2033C202.988 58.514 201.575 58.1087 200.121 58.019C198.667 57.9293 197.21 58.1575 195.864 58.686C194.518 59.2144 193.318 60.029 192.358 61.0666C191.397 62.1043 190.701 63.3373 190.324 64.6703C189.947 66.0033 189.898 67.4006 190.182 68.7542C190.466 70.1078 191.075 71.3814 191.962 72.4765C192.849 73.5717 193.989 74.459 195.296 75.07C196.603 75.6809 198.04 75.9991 199.497 76C199.699 76 199.901 76 200.098 75.979C201.811 75.8767 203.462 75.3369 204.877 74.4171C206.291 73.4973 207.417 72.2318 208.133 70.7549C208.849 69.2781 209.13 67.6451 208.945 66.0294C208.76 64.4137 208.116 62.8756 207.082 61.5785L207.079 61.5628Z" fill="url(#paint2_linear_2751_18104)"/>
<path opacity="0.2" d="M209 67.0028C209 69.2903 208.128 71.4919 206.563 73.1596C204.997 74.8274 202.855 75.8361 200.572 75.9806C200.387 75.9806 200.195 76 200.004 76C198.623 76.0008 197.261 75.6838 196.022 75.0736C194.784 74.4633 193.702 73.5762 192.861 72.4808C192.02 71.3854 191.443 70.1112 191.173 68.7568C190.904 67.4024 190.949 66.0041 191.307 64.6702C191.664 63.3363 192.324 62.1026 193.234 61.0645C194.145 60.0264 195.282 59.2118 196.558 58.6838C197.834 58.1558 199.214 57.9285 200.592 58.0196C201.97 58.1106 203.308 58.5176 204.503 59.2089C205.545 59.8135 206.456 60.6205 207.181 61.5823C208.363 63.1418 209.002 65.0457 209 67.0028Z" fill="black"/>
<path opacity="0.1" d="M197.614 61.1009C197.063 61.3195 196.531 61.5776 196.024 61.873C195.686 62.0435 195.394 62.2839 195.174 62.5754C195.064 62.7223 195.004 62.8956 195 63.0738C194.997 63.252 195.05 63.4272 195.154 63.5777C195.413 63.9047 195.912 63.9531 196.353 63.9773C196.815 64.0316 197.284 63.9881 197.725 63.8502C198.023 63.7143 198.294 63.5331 198.527 63.3142L199.443 62.5482C199.771 62.2817 200.1 61.9154 199.972 61.5399C199.896 61.4058 199.785 61.2913 199.649 61.2067C199.513 61.1221 199.357 61.0701 199.193 61.0554C198.403 60.9136 197.585 61.0462 196.894 61.4279" fill="black"/>
<g opacity="0.1">
<path opacity="0.1" d="M194.464 70.9355C194.721 70.9355 194.93 70.7269 194.93 70.4697C194.93 70.2124 194.721 70.0039 194.464 70.0039C194.207 70.0039 193.998 70.2124 193.998 70.4697C193.998 70.7269 194.207 70.9355 194.464 70.9355Z" fill="black"/>
</g>
<g opacity="0.1">
<path opacity="0.1" d="M203.921 69.2277C204.863 69.2277 205.626 68.4643 205.626 67.5225C205.626 66.5808 204.863 65.8174 203.921 65.8174C202.979 65.8174 202.216 66.5808 202.216 67.5225C202.216 68.4643 202.979 69.2277 203.921 69.2277Z" fill="black"/>
</g>
<g opacity="0.1">
<path opacity="0.1" d="M206.882 61.6554C206.877 62.1012 206.744 62.5361 206.499 62.9085C206.254 63.2809 205.907 63.575 205.499 63.7558C205.092 63.9366 204.641 63.9964 204.2 63.9283C203.76 63.8601 203.348 63.6667 203.014 63.3712C202.68 63.0757 202.438 62.6905 202.317 62.2614C202.196 61.8324 202.201 61.3776 202.331 60.9511C202.461 60.5246 202.711 60.1445 203.051 59.856C203.39 59.5675 203.806 59.3827 204.248 59.3237C205.273 59.9175 206.168 60.7102 206.882 61.6554Z" fill="black"/>
</g>
<g opacity="0.1">
<path opacity="0.1" d="M207.04 72.0687C206.279 73.151 205.285 74.0484 204.131 74.6944C202.977 75.3404 201.692 75.7184 200.372 75.8004C200.372 75.6778 200.355 75.5552 200.355 75.4299C200.356 74.6542 200.572 73.894 200.98 73.2338C201.387 72.5737 201.97 72.0397 202.663 71.6912C203.356 71.3427 204.132 71.1935 204.905 71.2601C205.678 71.3268 206.417 71.6067 207.04 72.0687Z" fill="black"/>
</g>
<path d="M86.71 111.605C86.1862 110.912 85.5295 110.33 84.7784 109.894C83.9163 109.387 82.9491 109.087 81.9522 109.016C80.9552 108.946 79.9553 109.106 79.0305 109.486C78.1057 109.865 77.2808 110.453 76.6203 111.204C75.9597 111.955 75.4812 112.848 75.222 113.815C74.9629 114.781 74.9301 115.794 75.1262 116.775C75.3223 117.757 75.7421 118.679 76.3527 119.471C76.9634 120.263 77.7485 120.904 78.6468 121.342C79.5452 121.781 80.5325 122.006 81.532 122C81.67 122 81.8025 122 81.9432 121.986C83.1089 121.908 84.2318 121.516 85.1935 120.852C86.1552 120.188 86.9202 119.276 87.4077 118.213C87.8952 117.15 88.0872 115.976 87.9635 114.813C87.8397 113.65 87.4048 112.542 86.7046 111.605H86.71Z" fill="url(#paint3_linear_2751_18104)"/>
<path opacity="0.2" d="M87 116.013C86.9997 117.539 86.4182 119.007 85.3739 120.119C84.3296 121.231 82.9009 121.904 81.3783 122C81.2537 122 81.1132 122 80.9993 122C80.079 122 79.171 121.788 78.3457 121.381C77.5204 120.974 76.7998 120.382 76.2396 119.652C75.6795 118.922 75.2947 118.073 75.1152 117.17C74.9357 116.268 74.9663 115.336 75.2044 114.447C75.4426 113.558 75.8821 112.736 76.4888 112.044C77.0955 111.352 77.8533 110.809 78.7035 110.457C79.5537 110.105 80.4736 109.953 81.3919 110.013C82.3102 110.073 83.2025 110.343 83.9996 110.803C84.6957 111.208 85.3032 111.749 85.7861 112.393C86.5762 113.434 87.0027 114.706 87 116.013Z" fill="black"/>
<path opacity="0.1" d="M79.5566 112.069C79.2269 112.213 78.9091 112.384 78.6064 112.581C78.4045 112.697 78.2302 112.857 78.096 113.05C78.0333 113.149 78 113.266 78 113.384C78 113.503 78.0333 113.619 78.096 113.718C78.1896 113.813 78.302 113.886 78.4257 113.932C78.5493 113.978 78.6812 113.996 78.8122 113.985C79.0893 114.021 79.3709 113.993 79.6356 113.901C79.8149 113.81 79.9779 113.688 80.1178 113.542L80.6648 113.032C80.8566 112.853 81.0652 112.61 80.9806 112.361C80.9375 112.27 80.8718 112.192 80.7902 112.135C80.7085 112.078 80.6138 112.045 80.5154 112.037C80.0434 111.942 79.5539 112.031 79.1421 112.286" fill="black"/>
<g opacity="0.1">
<path opacity="0.1" d="M77.5907 118.494C77.7698 118.494 77.9149 118.349 77.9149 118.17C77.9149 117.991 77.7698 117.846 77.5907 117.846C77.4117 117.846 77.2666 117.991 77.2666 118.17C77.2666 118.349 77.4117 118.494 77.5907 118.494Z" fill="black"/>
</g>
<g opacity="0.1">
<path opacity="0.1" d="M84.1908 117.307C84.8482 117.307 85.3811 116.774 85.3811 116.117C85.3811 115.459 84.8482 114.926 84.1908 114.926C83.5334 114.926 83.0005 115.459 83.0005 116.117C83.0005 116.774 83.5334 117.307 84.1908 117.307Z" fill="black"/>
</g>
<g opacity="0.1">
<path opacity="0.1" d="M86.2473 112.023C86.2449 112.336 86.152 112.643 85.9799 112.906C85.8078 113.168 85.5637 113.376 85.2767 113.503C84.9898 113.631 84.6722 113.673 84.362 113.625C84.0517 113.576 83.762 113.44 83.5273 113.231C83.2926 113.023 83.123 112.751 83.0387 112.448C82.9545 112.146 82.9591 111.826 83.0521 111.526C83.145 111.226 83.3224 110.959 83.563 110.757C83.8036 110.556 84.0972 110.427 84.4087 110.388C85.125 110.804 85.7503 111.36 86.2473 112.023Z" fill="black"/>
</g>
<g opacity="0.1">
<path opacity="0.1" d="M86.3672 119.287C85.8367 120.042 85.143 120.668 84.3377 121.119C83.5324 121.57 82.636 121.834 81.7148 121.891C81.7148 121.807 81.7148 121.72 81.7148 121.619C81.7153 121.078 81.8661 120.547 82.1502 120.087C82.4344 119.626 82.8409 119.254 83.3244 119.01C83.8078 118.767 84.3493 118.663 84.8885 118.71C85.4277 118.756 85.9434 118.951 86.3781 119.274L86.3672 119.287Z" fill="black"/>
</g>
<path d="M260.5 94C260.776 94 261 93.7761 261 93.5C261 93.2239 260.776 93 260.5 93C260.224 93 260 93.2239 260 93.5C260 93.7761 260.224 94 260.5 94Z" fill="white"/>
<path d="M116.326 123.816C115.78 123.543 115.208 123.327 114.618 123.171C101.472 119.686 81.9481 146.311 81.9481 146.311L78.9635 144.093C78.9635 144.093 86.4749 132.023 94.4368 112.754C101.595 95.4149 126.449 93.5765 131.365 93.3791C131.916 93.3598 132.217 93.3557 132.217 93.3557C143.295 110.282 116.326 123.816 116.326 123.816Z" fill="#AFC0E0"/>
<path opacity="0.2" d="M132.983 94.6402C132.752 94.2174 132.504 93.7937 132.223 93.3664C132.223 93.3664 131.926 93.3734 131.372 93.3899C126.455 93.5872 101.602 95.4256 94.4434 112.765C86.4815 132.033 78.9635 144.093 78.9635 144.093L80.6419 145.341C80.6419 145.341 88.1626 133.277 96.1151 114.001C103.238 96.7409 127.909 94.8424 132.983 94.6402Z" fill="white"/>
<path d="M164.114 164.538C147.953 177.713 138.58 188.395 138.58 188.395L135.589 186.173C135.589 186.173 156.358 158.617 147.806 147.463C147.623 147.217 147.425 146.984 147.214 146.763C147.214 146.763 152.387 117.032 171.792 122.765C171.792 122.765 171.861 122.994 171.973 123.424C173.118 127.784 178.819 152.544 164.114 164.538Z" fill="#AFC0E0"/>
<path opacity="0.1" d="M116.326 123.816C115.78 123.543 115.208 123.327 114.618 123.171C119.451 112.839 125.048 102.882 131.362 93.3828C131.913 93.3635 132.214 93.3594 132.214 93.3594C143.295 110.282 116.326 123.816 116.326 123.816Z" fill="black"/>
<path opacity="0.1" d="M171.976 123.432C164.58 132.087 156.496 140.128 147.803 147.478C147.62 147.233 147.423 146.999 147.211 146.779C147.211 146.779 152.384 117.048 171.789 122.78C171.789 122.769 171.858 122.998 171.976 123.432Z" fill="black"/>
<path d="M143.367 150.276C139.229 153.646 134.829 156.989 130.169 160.306C130.169 160.306 118.259 162.31 107.24 143.267C107.24 143.267 109.013 137.496 113.001 128.408C121.765 108.422 141.235 72.3951 176.089 46.4288C186.538 38.6017 197.935 32.1267 210.008 27.1575C210.008 27.1575 211.265 43.3519 203.567 66.8393C195.868 90.3266 179.204 121.105 143.367 150.276Z" fill="#E3E8F4"/>
<path d="M160.361 96.8128C167.796 102.338 178.303 100.79 183.828 93.3545C189.353 85.9194 187.805 75.4131 180.369 69.8879C172.934 64.3628 162.428 65.9111 156.903 73.3462C151.378 80.7813 152.926 91.2877 160.361 96.8128Z" fill="#AFC0E0"/>
<path d="M179.907 90.4529C178.564 92.2609 176.734 93.6502 174.632 94.4592C172.53 95.2682 170.241 95.4637 168.032 95.0229C165.823 94.5821 163.785 93.5231 162.154 91.9692C160.523 90.4153 159.367 88.4303 158.82 86.2451C158.556 85.1758 158.439 84.0751 158.474 82.9741C158.488 82.4813 158.534 81.99 158.61 81.5029C158.91 79.6041 159.666 77.8064 160.814 76.2644C160.871 76.1874 160.927 76.1122 160.983 76.037C162.549 74.0317 164.716 72.5807 167.167 71.8967C169.618 71.2127 172.223 71.3315 174.602 72.2359C175.506 72.5867 176.365 73.0432 177.162 73.5958L177.448 73.8081C178.702 74.7393 179.761 75.9086 180.564 77.2491C181.366 78.5897 181.897 80.0753 182.126 81.621C182.354 83.1667 182.276 84.7422 181.895 86.2576C181.514 87.773 180.839 89.1986 179.907 90.4529Z" fill="#508AA8"/>
<path d="M203.565 66.8376C182.856 62.8 176.084 46.4159 176.084 46.4159C186.535 38.5928 197.934 32.122 210.008 27.1572C210.008 27.1572 211.265 43.3516 203.565 66.8376Z" fill="#AFC0E0"/>
<path d="M143.366 150.276C140.563 152.557 137.642 154.825 134.604 157.082C133.157 158.159 131.68 159.232 130.171 160.299C130.171 160.299 118.261 162.303 107.242 143.26C107.242 143.26 107.818 141.386 109.044 138.087C109.976 135.6 111.281 132.308 112.998 128.397C112.998 128.397 117.12 135.459 125.688 141.827C130.968 145.778 136.975 148.649 143.366 150.276Z" fill="#AFC0E0"/>
<path d="M134.604 157.081C133.158 158.159 131.68 159.232 130.171 160.298C130.171 160.298 118.261 162.303 107.242 143.259C107.242 143.259 107.818 141.386 109.044 138.087C109.042 138.086 122.036 155.123 134.604 157.081Z" fill="#E3E8F4"/>
<path opacity="0.2" d="M174.617 72.2266L174.585 72.2262L160.997 76.0263C160.941 76.1015 160.885 76.1766 160.828 76.2537C159.68 77.7957 158.924 79.5934 158.624 81.4922L177.181 73.5893L174.617 72.2266Z" fill="white"/>
<path opacity="0.2" d="M170.825 81.9535L158.826 86.2373C158.561 85.168 158.444 84.0673 158.479 82.9663L170.642 80.732L170.825 81.9535Z" fill="white"/>
<path opacity="0.2" d="M110.87 145.958C110.87 145.958 112.645 140.186 116.631 131.099C125.396 111.112 144.866 75.0847 179.72 49.1184C189.133 42.0793 199.314 36.13 210.067 31.3845C210.12 28.6553 210.001 27.1549 210.001 27.1549C197.929 32.1208 186.533 38.5924 176.084 46.4159C141.23 72.3822 121.759 108.409 112.995 128.397C109.008 137.483 107.233 143.256 107.233 143.256C111.589 150.778 116.081 155.015 119.922 157.391C117.01 154.862 113.91 151.207 110.87 145.958Z" fill="white"/>
<defs>
<linearGradient id="paint0_linear_2751_18104" x1="75.5561" y1="166.429" x2="75.5561" y2="158.914" gradientUnits="userSpaceOnUse">
<stop stop-color="#808080" stop-opacity="0.25"/>
<stop offset="0.54" stop-color="#808080" stop-opacity="0.12"/>
<stop offset="1" stop-color="#808080" stop-opacity="0.1"/>
</linearGradient>
<linearGradient id="paint1_linear_2751_18104" x1="4895.86" y1="3684.13" x2="4895.86" y2="3539.6" gradientUnits="userSpaceOnUse">
<stop stop-color="#808080" stop-opacity="0.25"/>
<stop offset="0.54" stop-color="#808080" stop-opacity="0.12"/>
<stop offset="1" stop-color="#808080" stop-opacity="0.1"/>
</linearGradient>
<linearGradient id="paint2_linear_2751_18104" x1="14745" y1="7424.14" x2="14745" y2="6188.26" gradientUnits="userSpaceOnUse">
<stop stop-color="#808080" stop-opacity="0.25"/>
<stop offset="0.54" stop-color="#808080" stop-opacity="0.12"/>
<stop offset="1" stop-color="#808080" stop-opacity="0.1"/>
</linearGradient>
<linearGradient id="paint3_linear_2751_18104" x1="4378.65" y1="7621.05" x2="4378.65" y2="6998.22" gradientUnits="userSpaceOnUse">
<stop stop-color="#808080" stop-opacity="0.25"/>
<stop offset="0.54" stop-color="#808080" stop-opacity="0.12"/>
<stop offset="1" stop-color="#808080" stop-opacity="0.1"/>
</linearGradient>
</defs>
</svg>
