<svg id="Livello_1" data-name="Livello 1" xmlns="http://www.w3.org/2000/svg" viewBox="0 0 64 64"><path d="M32,63.5a6.42,6.42,0,0,1-3.47-1.11,64.93,64.93,0,0,1-16.7-15.51,32.63,32.63,0,0,1-7-19.76C4.88,12.44,17,.5,32,.5S59.12,12.44,59.12,27.12a32.65,32.65,0,0,1-7,19.77A66.08,66.08,0,0,1,35.47,62.38,6.25,6.25,0,0,1,32,63.5Z" style="fill:#fff"/><path d="M32,5.5A21.89,21.89,0,0,0,9.88,27.12a27.61,27.61,0,0,0,5.95,16.74h0A60,60,0,0,0,31.24,58.18c.7.45.91.4,1.5,0A61,61,0,0,0,48.17,43.86a27.61,27.61,0,0,0,5.95-16.74C54.12,15.2,44.19,5.5,32,5.5Z" style="fill:#2f9e44"/><path d="M32,42.05A14.25,14.25,0,1,1,46.32,27.87,14.25,14.25,0,0,1,32,42.05Zm0-23.49a9.25,9.25,0,1,0,9.34,9.31A9.32,9.32,0,0,0,32,18.56Z" style="fill:#fff"/></svg>